<svg width="60" height="60" viewBox="0 0 60 60" fill="none" xmlns="http://www.w3.org/2000/svg">
<rect width="60" height="60" rx="10" fill="#C25A38"/>
<path d="M51 36C51 36.35 50.9 36.7 50.72 37.01L37.51 36L50.72 34.99C50.9 35.3 51 35.65 51 36Z" fill="#EBA400"/>
<path d="M51 36C51 36.35 50.9001 36.7 50.7201 37.01L45.09 47.01C44.74 47.62 44.08 48 43.37 48H17.54C17.19 48 16.85 47.91 16.55 47.73L17.45 36H51Z" fill="url(#paint0_linear_2_201)"/>
<path d="M34.234 17.67L16.55 47.73H16.54C16.24 47.56 15.99 47.31 15.81 47L10.3 37.13C9.94003 36.51 9.94003 35.74 10.3 35.12L22.93 13C23.11 12.69 23.36 12.44 23.66 12.27H23.67L34.234 17.67Z" fill="url(#paint1_linear_2_201)"/>
<path d="M51 36H37.511L23.67 12.27C23.97 12.09 24.31 12 24.66 12H36.37C37.08 12 37.74 12.38 38.09 12.99L50.72 34.99C50.9 35.3 51 35.65 51 36Z" fill="url(#paint2_linear_2_201)"/>
<defs>
<linearGradient id="paint0_linear_2_201" x1="45.84" y1="47.496" x2="22.836" y2="36.77" gradientUnits="userSpaceOnUse">
<stop stop-color="#2A96F4"/>
<stop offset="0.535" stop-color="#2895F3"/>
<stop offset="0.728" stop-color="#2190EE"/>
<stop offset="0.865" stop-color="#1687E7"/>
<stop offset="0.976" stop-color="#057BDC"/>
<stop offset="1" stop-color="#0077D9"/>
</linearGradient>
<linearGradient id="paint1_linear_2_201" x1="9.52203" y1="36.11" x2="30.656" y2="23.909" gradientUnits="userSpaceOnUse">
<stop stop-color="#4CAF50"/>
<stop offset="0.486" stop-color="#4AAE50"/>
<stop offset="0.661" stop-color="#43A94E"/>
<stop offset="0.786" stop-color="#38A14C"/>
<stop offset="0.887" stop-color="#279648"/>
<stop offset="0.972" stop-color="#118844"/>
<stop offset="1" stop-color="#088242"/>
</linearGradient>
<linearGradient id="paint2_linear_2_201" x1="37.335" y1="12" x2="37.335" y2="36" gradientUnits="userSpaceOnUse">
<stop stop-color="#FFD747"/>
<stop offset="0.482" stop-color="#FED645"/>
<stop offset="0.655" stop-color="#FDD13E"/>
<stop offset="0.779" stop-color="#F9C833"/>
<stop offset="0.879" stop-color="#F4BC22"/>
<stop offset="0.964" stop-color="#EEAD0C"/>
<stop offset="1" stop-color="#EBA400"/>
</linearGradient>
</defs>
</svg>
