<svg width="60" height="60" viewBox="0 0 60 60" fill="none" xmlns="http://www.w3.org/2000/svg">
<rect width="60" height="60" rx="10" fill="#C25A38"/>
<path d="M30 11C24.9609 11 20.1282 13.0018 16.565 16.565C13.0018 20.1282 11 24.9609 11 30C11 35.0391 13.0018 39.8718 16.565 43.435C20.1282 46.9982 24.9609 49 30 49C35.0391 49 39.8718 46.9982 43.435 43.435C46.9982 39.8718 49 35.0391 49 30C49 24.9609 46.9982 20.1282 43.435 16.565C39.8718 13.0018 35.0391 11 30 11V11Z" fill="#039BE5"/>
<path d="M32.572 35.036H37.489L38.261 30.041H32.571V27.311C32.571 25.236 33.249 23.396 35.19 23.396H38.309V19.037C37.761 18.963 36.602 18.801 34.412 18.801C29.839 18.801 27.158 21.216 27.158 26.718V30.041H22.457V35.036H27.158V48.765C28.089 48.905 29.032 49 30 49C30.875 49 31.729 48.92 32.572 48.806V35.036Z" fill="white"/>
</svg>
