<svg width="60" height="60" viewBox="0 0 60 60" fill="none" xmlns="http://www.w3.org/2000/svg">
<rect width="60" height="60" rx="10" fill="#C25A38"/>
<path d="M40.017 47.99L20.017 48.009C15.617 48.013 12.014 44.417 12.009 40.017L11.99 20.017C11.986 15.617 15.582 12.014 19.982 12.009L39.982 11.99C44.382 11.986 47.985 15.582 47.99 19.982L48.009 39.982C48.014 44.383 44.417 47.986 40.017 47.99Z" fill="url(#paint0_radial_2_200)"/>
<path d="M40.017 47.99L20.017 48.009C15.617 48.013 12.014 44.417 12.009 40.017L11.99 20.017C11.986 15.617 15.582 12.014 19.982 12.009L39.982 11.99C44.382 11.986 47.985 15.582 47.99 19.982L48.009 39.982C48.014 44.383 44.417 47.986 40.017 47.99Z" fill="url(#paint1_radial_2_200)"/>
<path d="M30 37C26.141 37 23 33.86 23 30C23 26.14 26.141 23 30 23C33.859 23 37 26.14 37 30C37 33.86 33.859 37 30 37ZM30 25C27.243 25 25 27.243 25 30C25 32.757 27.243 35 30 35C32.757 35 35 32.757 35 30C35 27.243 32.757 25 30 25Z" fill="white"/>
<path d="M37.5 24C38.3284 24 39 23.3284 39 22.5C39 21.6716 38.3284 21 37.5 21C36.6716 21 36 21.6716 36 22.5C36 23.3284 36.6716 24 37.5 24Z" fill="white"/>
<path d="M36 43H24C20.141 43 17 39.86 17 36V24C17 20.14 20.141 17 24 17H36C39.859 17 43 20.14 43 24V36C43 39.86 39.859 43 36 43ZM24 19C21.243 19 19 21.243 19 24V36C19 38.757 21.243 41 24 41H36C38.757 41 41 38.757 41 36V24C41 21.243 38.757 19 36 19H24Z" fill="white"/>
<defs>
<radialGradient id="paint0_radial_2_200" cx="0" cy="0" r="1" gradientUnits="userSpaceOnUse" gradientTransform="translate(25.38 48.035) scale(44.899 44.899)">
<stop stop-color="#FFDD55"/>
<stop offset="0.328" stop-color="#FF543F"/>
<stop offset="0.348" stop-color="#FC5245"/>
<stop offset="0.504" stop-color="#E64771"/>
<stop offset="0.643" stop-color="#D53E91"/>
<stop offset="0.761" stop-color="#CC39A4"/>
<stop offset="0.841" stop-color="#C837AB"/>
</radialGradient>
<radialGradient id="paint1_radial_2_200" cx="0" cy="0" r="1" gradientUnits="userSpaceOnUse" gradientTransform="translate(17.786 11.5403) scale(29.813 19.8644)">
<stop stop-color="#4168C9"/>
<stop offset="0.999" stop-color="#4168C9" stop-opacity="0"/>
</radialGradient>
</defs>
</svg>
